<?xml version="1.0" encoding="UTF-8" standalone="yes"?>
                 <!DOCTYPE svg PUBLIC "-//W3C//DTD SVG 1.0//EN" "http://www.w3.org/TR/2001/REC-SVG-20010904/DTD/svg10.dtd">
                 <svg height="170" width="1020" xmlns="http://www.w3.org/2000/svg" xmlns:xlink="http://www.w3.org/1999/xlink">
                 <line x1="85" y1="120" x2="987" y2="120" style="stroke:rgb(99,99,99);stroke-width:2" />
<rect height="7.000000" width="2.000000" x="85.000000" y="120.000000" fill="rgb(0, 0, 0)" style="fill-opacity:1.00" />
<text x="107.000000" y="140">
1
</text>
<rect height="7.000000" width="2.000000" x="145.000000" y="120.000000" fill="rgb(0, 0, 0)" style="fill-opacity:1.00" />
<text x="167.000000" y="140">
2
</text>
<rect height="7.000000" width="2.000000" x="205.000000" y="120.000000" fill="rgb(0, 0, 0)" style="fill-opacity:1.00" />
<text x="227.000000" y="140">
3
</text>
<rect height="7.000000" width="2.000000" x="265.000000" y="120.000000" fill="rgb(0, 0, 0)" style="fill-opacity:1.00" />
<text x="287.000000" y="140">
4
</text>
<rect height="7.000000" width="2.000000" x="325.000000" y="120.000000" fill="rgb(0, 0, 0)" style="fill-opacity:1.00" />
<text x="347.000000" y="140">
5
</text>
<rect height="7.000000" width="2.000000" x="385.000000" y="120.000000" fill="rgb(0, 0, 0)" style="fill-opacity:1.00" />
<text x="407.000000" y="140">
6
</text>
<rect height="7.000000" width="2.000000" x="445.000000" y="120.000000" fill="rgb(0, 0, 0)" style="fill-opacity:1.00" />
<text x="467.000000" y="140">
7
</text>
<rect height="7.000000" width="2.000000" x="505.000000" y="120.000000" fill="rgb(0, 0, 0)" style="fill-opacity:1.00" />
<text x="527.000000" y="140">
8
</text>
<rect height="7.000000" width="2.000000" x="565.000000" y="120.000000" fill="rgb(0, 0, 0)" style="fill-opacity:1.00" />
<text x="587.000000" y="140">
9
</text>
<rect height="7.000000" width="2.000000" x="625.000000" y="120.000000" fill="rgb(0, 0, 0)" style="fill-opacity:1.00" />
<text x="647.000000" y="140">
10
</text>
<rect height="7.000000" width="2.000000" x="685.000000" y="120.000000" fill="rgb(0, 0, 0)" style="fill-opacity:1.00" />
<text x="707.000000" y="140">
11
</text>
<rect height="7.000000" width="2.000000" x="745.000000" y="120.000000" fill="rgb(0, 0, 0)" style="fill-opacity:1.00" />
<text x="767.000000" y="140">
12
</text>
<rect height="7.000000" width="2.000000" x="805.000000" y="120.000000" fill="rgb(0, 0, 0)" style="fill-opacity:1.00" />
<text x="827.000000" y="140">
13
</text>
<rect height="7.000000" width="2.000000" x="865.000000" y="120.000000" fill="rgb(0, 0, 0)" style="fill-opacity:1.00" />
<text x="887.000000" y="140">
14
</text>
<rect height="7.000000" width="2.000000" x="925.000000" y="120.000000" fill="rgb(0, 0, 0)" style="fill-opacity:1.00" />
<text x="947.000000" y="140">
15
</text>
<rect height="7.000000" width="2.000000" x="985.000000" y="120.000000" fill="rgb(0, 0, 0)" style="fill-opacity:1.00" />
<line x1="80" y1="112" x2="80" y2="10" style="stroke:rgb(99,99,99);stroke-width:2" />
<rect height="2.000000" width="7.000000" x="73.000000" y="110.000000" fill="rgb(0, 0, 0)" style="fill-opacity:1.00" />
<text x="63" y="115">
0
</text>
<rect height="2.000000" width="7.000000" x="73.000000" y="60.000000" fill="rgb(0, 0, 0)" style="fill-opacity:1.00" />
<text x="63" y="65">
1
</text>
<rect height="2.000000" width="7.000000" x="73.000000" y="10.000000" fill="rgb(0, 0, 0)" style="fill-opacity:1.00" />
<text x="63" y="15">
2
</text>
<text x="50" y="65"
transform="rotate(-90, 50, 70)">
bits
</text>
<!-- Begin 'G' -->
<ellipse cx="115.000000" cy="109.414768" rx="25.000000" ry="0.102010" fill="rgb(255, 165, 0)" style="fill-opacity:1.00" />
<ellipse cx="115.000000" cy="109.414768" rx="16.666667" ry="0.068007" fill="rgb(255, 255, 255)" style="fill-opacity:1.00" />
<rect height="0.102010" width="25.000000" x="115.000000" y="109.363762" fill="rgb(255, 255, 255)" style="fill-opacity:1.00" />
<rect height="0.025503" width="25.000000" x="115.000000" y="109.440270" fill="rgb(255, 165, 0)" style="fill-opacity:1.00" />
<rect height="0.076508" width="6.250000" x="133.750000" y="109.440270" fill="rgb(255, 165, 0)" style="fill-opacity:1.00" />
<!-- End 'G' -->
<!-- Begin 'A' -->
<polygon points=" 90.000000, 109.692724, 111.000000, 109.516778, 119.000000, 109.516778, 140.000000, 109.692724, 132.500000, 109.692724, 126.250000, 109.648738, 103.750000, 109.648738, 97.500000, 109.692724" fill="rgb(178, 34, 34)" style="fill-opacity:1.00" />
<!-- End 'A' -->
<!-- Begin 'C' -->
<ellipse cx="115.000000" cy="109.777516" rx="25.000000" ry="0.084792" fill="rgb(0, 0, 128)" style="fill-opacity:1.00" />
<ellipse cx="115.000000" cy="109.777516" rx="16.666667" ry="0.056528" fill="rgb(255, 255, 255)" style="fill-opacity:1.00" />
<rect height="0.084792" width="25.000000" x="115.000000" y="109.735120" fill="rgb(255, 255, 255)" style="fill-opacity:1.00" />
<!-- End 'C' -->
<!-- Begin 'T' -->
<rect height="0.022031" width="50.000000" x="90.000000" y="109.862308" fill="rgb(0, 100, 0)" style="fill-opacity:1.00" />
<rect height="0.137692" width="10.000000" x="110.000000" y="109.862308" fill="rgb(0, 100, 0)" style="fill-opacity:1.00" />
<!-- End 'T' -->
<!-- Begin 'G' -->
<ellipse cx="175.000000" cy="109.422753" rx="25.000000" ry="0.098405" fill="rgb(255, 165, 0)" style="fill-opacity:1.00" />
<ellipse cx="175.000000" cy="109.422753" rx="16.666667" ry="0.065603" fill="rgb(255, 255, 255)" style="fill-opacity:1.00" />
<rect height="0.098405" width="25.000000" x="175.000000" y="109.373551" fill="rgb(255, 255, 255)" style="fill-opacity:1.00" />
<rect height="0.024601" width="25.000000" x="175.000000" y="109.447355" fill="rgb(255, 165, 0)" style="fill-opacity:1.00" />
<rect height="0.073804" width="6.250000" x="193.750000" y="109.447355" fill="rgb(255, 165, 0)" style="fill-opacity:1.00" />
<!-- End 'G' -->
<!-- Begin 'A' -->
<polygon points=" 150.000000, 109.699464, 171.000000, 109.521158, 179.000000, 109.521158, 200.000000, 109.699464, 192.500000, 109.699464, 186.250000, 109.654887, 163.750000, 109.654887, 157.500000, 109.699464" fill="rgb(178, 34, 34)" style="fill-opacity:1.00" />
<!-- End 'A' -->
<!-- Begin 'C' -->
<ellipse cx="175.000000" cy="109.782692" rx="25.000000" ry="0.083229" fill="rgb(0, 0, 128)" style="fill-opacity:1.00" />
<ellipse cx="175.000000" cy="109.782692" rx="16.666667" ry="0.055486" fill="rgb(255, 255, 255)" style="fill-opacity:1.00" />
<rect height="0.083229" width="25.000000" x="175.000000" y="109.741078" fill="rgb(255, 255, 255)" style="fill-opacity:1.00" />
<!-- End 'C' -->
<!-- Begin 'T' -->
<rect height="0.021453" width="50.000000" x="150.000000" y="109.865921" fill="rgb(0, 100, 0)" style="fill-opacity:1.00" />
<rect height="0.134079" width="10.000000" x="170.000000" y="109.865921" fill="rgb(0, 100, 0)" style="fill-opacity:1.00" />
<!-- End 'T' -->
<!-- Begin 'G' -->
<ellipse cx="235.000000" cy="109.712606" rx="25.000000" ry="0.045642" fill="rgb(255, 165, 0)" style="fill-opacity:1.00" />
<ellipse cx="235.000000" cy="109.712606" rx="16.666667" ry="0.030428" fill="rgb(255, 255, 255)" style="fill-opacity:1.00" />
<rect height="0.045642" width="25.000000" x="235.000000" y="109.689785" fill="rgb(255, 255, 255)" style="fill-opacity:1.00" />
<rect height="0.011411" width="25.000000" x="235.000000" y="109.724017" fill="rgb(255, 165, 0)" style="fill-opacity:1.00" />
<rect height="0.034232" width="6.250000" x="253.750000" y="109.724017" fill="rgb(255, 165, 0)" style="fill-opacity:1.00" />
<!-- End 'G' -->
<!-- Begin 'C' -->
<ellipse cx="235.000000" cy="109.801998" rx="25.000000" ry="0.043749" fill="rgb(0, 0, 128)" style="fill-opacity:1.00" />
<ellipse cx="235.000000" cy="109.801998" rx="16.666667" ry="0.029166" fill="rgb(255, 255, 255)" style="fill-opacity:1.00" />
<rect height="0.043749" width="25.000000" x="235.000000" y="109.780123" fill="rgb(255, 255, 255)" style="fill-opacity:1.00" />
<!-- End 'C' -->
<!-- Begin 'A' -->
<polygon points=" 210.000000, 109.929634, 231.000000, 109.845747, 239.000000, 109.845747, 260.000000, 109.929634, 252.500000, 109.929634, 246.250000, 109.908662, 223.750000, 109.908662, 217.500000, 109.929634" fill="rgb(178, 34, 34)" style="fill-opacity:1.00" />
<!-- End 'A' -->
<!-- Begin 'T' -->
<rect height="0.011259" width="50.000000" x="210.000000" y="109.929634" fill="rgb(0, 100, 0)" style="fill-opacity:1.00" />
<rect height="0.070366" width="10.000000" x="230.000000" y="109.929634" fill="rgb(0, 100, 0)" style="fill-opacity:1.00" />
<!-- End 'T' -->
<!-- Begin 'G' -->
<ellipse cx="295.000000" cy="105.835700" rx="25.000000" ry="1.077275" fill="rgb(255, 165, 0)" style="fill-opacity:1.00" />
<ellipse cx="295.000000" cy="105.835700" rx="16.666667" ry="0.718183" fill="rgb(255, 255, 255)" style="fill-opacity:1.00" />
<rect height="1.077275" width="25.000000" x="295.000000" y="105.297063" fill="rgb(255, 255, 255)" style="fill-opacity:1.00" />
<rect height="0.269319" width="25.000000" x="295.000000" y="106.105019" fill="rgb(255, 165, 0)" style="fill-opacity:1.00" />
<rect height="0.807956" width="6.250000" x="313.750000" y="106.105019" fill="rgb(255, 165, 0)" style="fill-opacity:1.00" />
<!-- End 'G' -->
<!-- Begin 'A' -->
<polygon points=" 270.000000, 108.222971, 291.000000, 106.912975, 299.000000, 106.912975, 320.000000, 108.222971, 312.500000, 108.222971, 306.250000, 107.895472, 283.750000, 107.895472, 277.500000, 108.222971" fill="rgb(178, 34, 34)" style="fill-opacity:1.00" />
<!-- End 'A' -->
<!-- Begin 'T' -->
<rect height="0.144957" width="50.000000" x="270.000000" y="108.222971" fill="rgb(0, 100, 0)" style="fill-opacity:1.00" />
<rect height="0.905979" width="10.000000" x="290.000000" y="108.222971" fill="rgb(0, 100, 0)" style="fill-opacity:1.00" />
<!-- End 'T' -->
<!-- Begin 'C' -->
<ellipse cx="295.000000" cy="109.564475" rx="25.000000" ry="0.435525" fill="rgb(0, 0, 128)" style="fill-opacity:1.00" />
<ellipse cx="295.000000" cy="109.564475" rx="16.666667" ry="0.290350" fill="rgb(255, 255, 255)" style="fill-opacity:1.00" />
<rect height="0.435525" width="25.000000" x="295.000000" y="109.346713" fill="rgb(255, 255, 255)" style="fill-opacity:1.00" />
<!-- End 'C' -->
<!-- Begin 'A' -->
<polygon points=" 330.000000, 97.335627, 351.000000, 88.520039, 359.000000, 88.520039, 380.000000, 97.335627, 372.500000, 97.335627, 366.250000, 95.131730, 343.750000, 95.131730, 337.500000, 97.335627" fill="rgb(178, 34, 34)" style="fill-opacity:1.00" />
<polygon points=" 355.000000, 90.283157, 347.000000, 92.809392, 362.000000, 92.809392" fill="rgb(255, 255, 255)" style="fill-opacity:1.00" />
<!-- End 'A' -->
<!-- Begin 'G' -->
<ellipse cx="355.000000" cy="101.399191" rx="25.000000" ry="4.063564" fill="rgb(255, 165, 0)" style="fill-opacity:1.00" />
<ellipse cx="355.000000" cy="101.399191" rx="16.666667" ry="2.709043" fill="rgb(255, 255, 255)" style="fill-opacity:1.00" />
<rect height="4.063564" width="25.000000" x="355.000000" y="99.367409" fill="rgb(255, 255, 255)" style="fill-opacity:1.00" />
<rect height="1.015891" width="25.000000" x="355.000000" y="102.415082" fill="rgb(255, 165, 0)" style="fill-opacity:1.00" />
<rect height="3.047673" width="6.250000" x="373.750000" y="102.415082" fill="rgb(255, 165, 0)" style="fill-opacity:1.00" />
<!-- End 'G' -->
<!-- Begin 'C' -->
<ellipse cx="355.000000" cy="107.668233" rx="25.000000" ry="2.205478" fill="rgb(0, 0, 128)" style="fill-opacity:1.00" />
<ellipse cx="355.000000" cy="107.668233" rx="16.666667" ry="1.470319" fill="rgb(255, 255, 255)" style="fill-opacity:1.00" />
<rect height="2.205478" width="25.000000" x="355.000000" y="106.565494" fill="rgb(255, 255, 255)" style="fill-opacity:1.00" />
<!-- End 'C' -->
<!-- Begin 'T' -->
<rect height="0.020206" width="50.000000" x="330.000000" y="109.873711" fill="rgb(0, 100, 0)" style="fill-opacity:1.00" />
<rect height="0.126289" width="10.000000" x="350.000000" y="109.873711" fill="rgb(0, 100, 0)" style="fill-opacity:1.00" />
<!-- End 'T' -->
<!-- Begin 'T' -->
<rect height="15.800824" width="50.000000" x="390.000000" y="11.067829" fill="rgb(0, 100, 0)" style="fill-opacity:1.00" />
<rect height="98.755150" width="10.000000" x="410.000000" y="11.067829" fill="rgb(0, 100, 0)" style="fill-opacity:1.00" />
<!-- End 'T' -->
<!-- Begin 'G' -->
<ellipse cx="415.000000" cy="109.874128" rx="25.000000" ry="0.051149" fill="rgb(255, 165, 0)" style="fill-opacity:1.00" />
<ellipse cx="415.000000" cy="109.874128" rx="16.666667" ry="0.034099" fill="rgb(255, 255, 255)" style="fill-opacity:1.00" />
<rect height="0.051149" width="25.000000" x="415.000000" y="109.848554" fill="rgb(255, 255, 255)" style="fill-opacity:1.00" />
<rect height="0.012787" width="25.000000" x="415.000000" y="109.886916" fill="rgb(255, 165, 0)" style="fill-opacity:1.00" />
<rect height="0.038362" width="6.250000" x="433.750000" y="109.886916" fill="rgb(255, 165, 0)" style="fill-opacity:1.00" />
<!-- End 'G' -->
<!-- Begin 'A' -->
<polygon points=" 390.000000, 109.975476, 411.000000, 109.925277, 419.000000, 109.925277, 440.000000, 109.975476, 432.500000, 109.975476, 426.250000, 109.962926, 403.750000, 109.962926, 397.500000, 109.975476" fill="rgb(178, 34, 34)" style="fill-opacity:1.00" />
<!-- End 'A' -->
<!-- Begin 'C' -->
<ellipse cx="415.000000" cy="109.987738" rx="25.000000" ry="0.012262" fill="rgb(0, 0, 128)" style="fill-opacity:1.00" />
<ellipse cx="415.000000" cy="109.987738" rx="16.666667" ry="0.008175" fill="rgb(255, 255, 255)" style="fill-opacity:1.00" />
<rect height="0.012262" width="25.000000" x="415.000000" y="109.981607" fill="rgb(255, 255, 255)" style="fill-opacity:1.00" />
<!-- End 'C' -->
<!-- Begin 'G' -->
<ellipse cx="475.000000" cy="72.556997" rx="25.000000" ry="25.723846" fill="rgb(255, 165, 0)" style="fill-opacity:1.00" />
<ellipse cx="475.000000" cy="72.556997" rx="16.666667" ry="17.149231" fill="rgb(255, 255, 255)" style="fill-opacity:1.00" />
<rect height="25.723846" width="25.000000" x="475.000000" y="59.695074" fill="rgb(255, 255, 255)" style="fill-opacity:1.00" />
<rect height="6.430962" width="25.000000" x="475.000000" y="78.987959" fill="rgb(255, 165, 0)" style="fill-opacity:1.00" />
<rect height="19.292885" width="6.250000" x="493.750000" y="78.987959" fill="rgb(255, 165, 0)" style="fill-opacity:1.00" />
<!-- End 'G' -->
<!-- Begin 'T' -->
<rect height="1.813696" width="50.000000" x="450.000000" y="98.280844" fill="rgb(0, 100, 0)" style="fill-opacity:1.00" />
<rect height="11.335597" width="10.000000" x="470.000000" y="98.280844" fill="rgb(0, 100, 0)" style="fill-opacity:1.00" />
<!-- End 'T' -->
<!-- Begin 'A' -->
<polygon points=" 450.000000, 109.808500, 471.000000, 109.616441, 479.000000, 109.616441, 500.000000, 109.808500, 492.500000, 109.808500, 486.250000, 109.760485, 463.750000, 109.760485, 457.500000, 109.808500" fill="rgb(178, 34, 34)" style="fill-opacity:1.00" />
<!-- End 'A' -->
<!-- Begin 'C' -->
<ellipse cx="475.000000" cy="109.904250" rx="25.000000" ry="0.095750" fill="rgb(0, 0, 128)" style="fill-opacity:1.00" />
<ellipse cx="475.000000" cy="109.904250" rx="16.666667" ry="0.063833" fill="rgb(255, 255, 255)" style="fill-opacity:1.00" />
<rect height="0.095750" width="25.000000" x="475.000000" y="109.856375" fill="rgb(255, 255, 255)" style="fill-opacity:1.00" />
<!-- End 'C' -->
<!-- Begin 'A' -->
<polygon points=" 510.000000, 108.896355, 531.000000, 15.203417, 539.000000, 15.203417, 560.000000, 108.896355, 552.500000, 108.896355, 546.250000, 85.473120, 523.750000, 85.473120, 517.500000, 108.896355" fill="rgb(178, 34, 34)" style="fill-opacity:1.00" />
<polygon points=" 535.000000, 33.942005, 527.000000, 70.419180, 542.000000, 70.419180" fill="rgb(255, 255, 255)" style="fill-opacity:1.00" />
<!-- End 'A' -->
<!-- Begin 'T' -->
<rect height="0.124269" width="50.000000" x="510.000000" y="108.896355" fill="rgb(0, 100, 0)" style="fill-opacity:1.00" />
<rect height="0.776681" width="10.000000" x="530.000000" y="108.896355" fill="rgb(0, 100, 0)" style="fill-opacity:1.00" />
<!-- End 'T' -->
<!-- Begin 'G' -->
<ellipse cx="535.000000" cy="109.806594" rx="25.000000" ry="0.133558" fill="rgb(255, 165, 0)" style="fill-opacity:1.00" />
<ellipse cx="535.000000" cy="109.806594" rx="16.666667" ry="0.089039" fill="rgb(255, 255, 255)" style="fill-opacity:1.00" />
<rect height="0.133558" width="25.000000" x="535.000000" y="109.739815" fill="rgb(255, 255, 255)" style="fill-opacity:1.00" />
<rect height="0.033390" width="25.000000" x="535.000000" y="109.839984" fill="rgb(255, 165, 0)" style="fill-opacity:1.00" />
<rect height="0.100169" width="6.250000" x="553.750000" y="109.839984" fill="rgb(255, 165, 0)" style="fill-opacity:1.00" />
<!-- End 'G' -->
<!-- Begin 'C' -->
<ellipse cx="535.000000" cy="109.970076" rx="25.000000" ry="0.029924" fill="rgb(0, 0, 128)" style="fill-opacity:1.00" />
<ellipse cx="535.000000" cy="109.970076" rx="16.666667" ry="0.019949" fill="rgb(255, 255, 255)" style="fill-opacity:1.00" />
<rect height="0.029924" width="25.000000" x="535.000000" y="109.955115" fill="rgb(255, 255, 255)" style="fill-opacity:1.00" />
<!-- End 'C' -->
<!-- Begin 'C' -->
<ellipse cx="595.000000" cy="94.670250" rx="25.000000" ry="5.335014" fill="rgb(0, 0, 128)" style="fill-opacity:1.00" />
<ellipse cx="595.000000" cy="94.670250" rx="16.666667" ry="3.556676" fill="rgb(255, 255, 255)" style="fill-opacity:1.00" />
<rect height="5.335014" width="25.000000" x="595.000000" y="92.002743" fill="rgb(255, 255, 255)" style="fill-opacity:1.00" />
<!-- End 'C' -->
<!-- Begin 'T' -->
<rect height="0.804798" width="50.000000" x="570.000000" y="100.005264" fill="rgb(0, 100, 0)" style="fill-opacity:1.00" />
<rect height="5.029990" width="10.000000" x="590.000000" y="100.005264" fill="rgb(0, 100, 0)" style="fill-opacity:1.00" />
<!-- End 'T' -->
<!-- Begin 'G' -->
<ellipse cx="595.000000" cy="107.297401" rx="25.000000" ry="2.262148" fill="rgb(255, 165, 0)" style="fill-opacity:1.00" />
<ellipse cx="595.000000" cy="107.297401" rx="16.666667" ry="1.508098" fill="rgb(255, 255, 255)" style="fill-opacity:1.00" />
<rect height="2.262148" width="25.000000" x="595.000000" y="106.166328" fill="rgb(255, 255, 255)" style="fill-opacity:1.00" />
<rect height="0.565537" width="25.000000" x="595.000000" y="107.862938" fill="rgb(255, 165, 0)" style="fill-opacity:1.00" />
<rect height="1.696611" width="6.250000" x="613.750000" y="107.862938" fill="rgb(255, 165, 0)" style="fill-opacity:1.00" />
<!-- End 'G' -->
<!-- Begin 'A' -->
<polygon points=" 570.000000, 110.000000, 591.000000, 109.559549, 599.000000, 109.559549, 620.000000, 110.000000, 612.500000, 110.000000, 606.250000, 109.889887, 583.750000, 109.889887, 577.500000, 110.000000" fill="rgb(178, 34, 34)" style="fill-opacity:1.00" />
<!-- End 'A' -->
<!-- Begin 'G' -->
<ellipse cx="655.000000" cy="93.109418" rx="25.000000" ry="6.953237" fill="rgb(255, 165, 0)" style="fill-opacity:1.00" />
<ellipse cx="655.000000" cy="93.109418" rx="16.666667" ry="4.635491" fill="rgb(255, 255, 255)" style="fill-opacity:1.00" />
<rect height="6.953237" width="25.000000" x="655.000000" y="89.632800" fill="rgb(255, 255, 255)" style="fill-opacity:1.00" />
<rect height="1.738309" width="25.000000" x="655.000000" y="94.847727" fill="rgb(255, 165, 0)" style="fill-opacity:1.00" />
<rect height="5.214927" width="6.250000" x="673.750000" y="94.847727" fill="rgb(255, 165, 0)" style="fill-opacity:1.00" />
<!-- End 'G' -->
<!-- Begin 'A' -->
<polygon points=" 630.000000, 105.559457, 651.000000, 100.062654, 659.000000, 100.062654, 680.000000, 105.559457, 672.500000, 105.559457, 666.250000, 104.185256, 643.750000, 104.185256, 637.500000, 105.559457" fill="rgb(178, 34, 34)" style="fill-opacity:1.00" />
<!-- End 'A' -->
<!-- Begin 'C' -->
<ellipse cx="655.000000" cy="107.362403" rx="25.000000" ry="1.802946" fill="rgb(0, 0, 128)" style="fill-opacity:1.00" />
<ellipse cx="655.000000" cy="107.362403" rx="16.666667" ry="1.201964" fill="rgb(255, 255, 255)" style="fill-opacity:1.00" />
<rect height="1.802946" width="25.000000" x="655.000000" y="106.460930" fill="rgb(255, 255, 255)" style="fill-opacity:1.00" />
<!-- End 'C' -->
<!-- Begin 'T' -->
<rect height="0.133544" width="50.000000" x="630.000000" y="109.165349" fill="rgb(0, 100, 0)" style="fill-opacity:1.00" />
<rect height="0.834651" width="10.000000" x="650.000000" y="109.165349" fill="rgb(0, 100, 0)" style="fill-opacity:1.00" />
<!-- End 'T' -->
<!-- Begin 'T' -->
<rect height="7.076204" width="50.000000" x="690.000000" y="53.818316" fill="rgb(0, 100, 0)" style="fill-opacity:1.00" />
<rect height="44.226277" width="10.000000" x="710.000000" y="53.818316" fill="rgb(0, 100, 0)" style="fill-opacity:1.00" />
<!-- End 'T' -->
<!-- Begin 'C' -->
<ellipse cx="715.000000" cy="103.208615" rx="25.000000" ry="5.164022" fill="rgb(0, 0, 128)" style="fill-opacity:1.00" />
<ellipse cx="715.000000" cy="103.208615" rx="16.666667" ry="3.442682" fill="rgb(255, 255, 255)" style="fill-opacity:1.00" />
<rect height="5.164022" width="25.000000" x="715.000000" y="100.626604" fill="rgb(255, 255, 255)" style="fill-opacity:1.00" />
<!-- End 'C' -->
<!-- Begin 'A' -->
<polygon points=" 690.000000, 109.929873, 711.000000, 108.372637, 719.000000, 108.372637, 740.000000, 109.929873, 732.500000, 109.929873, 726.250000, 109.540564, 703.750000, 109.540564, 697.500000, 109.929873" fill="rgb(178, 34, 34)" style="fill-opacity:1.00" />
<!-- End 'A' -->
<!-- Begin 'G' -->
<ellipse cx="715.000000" cy="109.964936" rx="25.000000" ry="0.035064" fill="rgb(255, 165, 0)" style="fill-opacity:1.00" />
<ellipse cx="715.000000" cy="109.964936" rx="16.666667" ry="0.023376" fill="rgb(255, 255, 255)" style="fill-opacity:1.00" />
<rect height="0.035064" width="25.000000" x="715.000000" y="109.947405" fill="rgb(255, 255, 255)" style="fill-opacity:1.00" />
<rect height="0.008766" width="25.000000" x="715.000000" y="109.973702" fill="rgb(255, 165, 0)" style="fill-opacity:1.00" />
<rect height="0.026298" width="6.250000" x="733.750000" y="109.973702" fill="rgb(255, 165, 0)" style="fill-opacity:1.00" />
<!-- End 'G' -->
<!-- Begin 'C' -->
<ellipse cx="775.000000" cy="81.510831" rx="25.000000" ry="13.968820" fill="rgb(0, 0, 128)" style="fill-opacity:1.00" />
<ellipse cx="775.000000" cy="81.510831" rx="16.666667" ry="9.312546" fill="rgb(255, 255, 255)" style="fill-opacity:1.00" />
<rect height="13.968820" width="25.000000" x="775.000000" y="74.526421" fill="rgb(255, 255, 255)" style="fill-opacity:1.00" />
<!-- End 'C' -->
<!-- Begin 'A' -->
<polygon points=" 750.000000, 107.926707, 771.000000, 95.479651, 779.000000, 95.479651, 800.000000, 107.926707, 792.500000, 107.926707, 786.250000, 104.814943, 763.750000, 104.814943, 757.500000, 107.926707" fill="rgb(178, 34, 34)" style="fill-opacity:1.00" />
<polygon points=" 775.000000, 97.969062, 767.000000, 101.947885, 782.000000, 101.947885" fill="rgb(255, 255, 255)" style="fill-opacity:1.00" />
<!-- End 'A' -->
<!-- Begin 'G' -->
<ellipse cx="775.000000" cy="108.866664" rx="25.000000" ry="0.939957" fill="rgb(255, 165, 0)" style="fill-opacity:1.00" />
<ellipse cx="775.000000" cy="108.866664" rx="16.666667" ry="0.626638" fill="rgb(255, 255, 255)" style="fill-opacity:1.00" />
<rect height="0.939957" width="25.000000" x="775.000000" y="108.396686" fill="rgb(255, 255, 255)" style="fill-opacity:1.00" />
<rect height="0.234989" width="25.000000" x="775.000000" y="109.101654" fill="rgb(255, 165, 0)" style="fill-opacity:1.00" />
<rect height="0.704968" width="6.250000" x="793.750000" y="109.101654" fill="rgb(255, 165, 0)" style="fill-opacity:1.00" />
<!-- End 'G' -->
<!-- Begin 'T' -->
<rect height="0.030941" width="50.000000" x="750.000000" y="109.806621" fill="rgb(0, 100, 0)" style="fill-opacity:1.00" />
<rect height="0.193379" width="10.000000" x="770.000000" y="109.806621" fill="rgb(0, 100, 0)" style="fill-opacity:1.00" />
<!-- End 'T' -->
<!-- Begin 'A' -->
<polygon points=" 810.000000, 109.360330, 831.000000, 13.377627, 839.000000, 13.377627, 860.000000, 109.360330, 852.500000, 109.360330, 846.250000, 85.364654, 823.750000, 85.364654, 817.500000, 109.360330" fill="rgb(178, 34, 34)" style="fill-opacity:1.00" />
<polygon points=" 835.000000, 32.574168, 827.000000, 69.967249, 842.000000, 69.967249" fill="rgb(255, 255, 255)" style="fill-opacity:1.00" />
<!-- End 'A' -->
<!-- Begin 'G' -->
<ellipse cx="835.000000" cy="109.501053" rx="25.000000" ry="0.140723" fill="rgb(255, 165, 0)" style="fill-opacity:1.00" />
<ellipse cx="835.000000" cy="109.501053" rx="16.666667" ry="0.093815" fill="rgb(255, 255, 255)" style="fill-opacity:1.00" />
<rect height="0.140723" width="25.000000" x="835.000000" y="109.430692" fill="rgb(255, 255, 255)" style="fill-opacity:1.00" />
<rect height="0.035181" width="25.000000" x="835.000000" y="109.536233" fill="rgb(255, 165, 0)" style="fill-opacity:1.00" />
<rect height="0.105542" width="6.250000" x="853.750000" y="109.536233" fill="rgb(255, 165, 0)" style="fill-opacity:1.00" />
<!-- End 'G' -->
<!-- Begin 'T' -->
<rect height="0.035398" width="50.000000" x="810.000000" y="109.641775" fill="rgb(0, 100, 0)" style="fill-opacity:1.00" />
<rect height="0.221236" width="10.000000" x="830.000000" y="109.641775" fill="rgb(0, 100, 0)" style="fill-opacity:1.00" />
<!-- End 'T' -->
<!-- Begin 'C' -->
<ellipse cx="835.000000" cy="109.931505" rx="25.000000" ry="0.068495" fill="rgb(0, 0, 128)" style="fill-opacity:1.00" />
<ellipse cx="835.000000" cy="109.931505" rx="16.666667" ry="0.045663" fill="rgb(255, 255, 255)" style="fill-opacity:1.00" />
<rect height="0.068495" width="25.000000" x="835.000000" y="109.897258" fill="rgb(255, 255, 255)" style="fill-opacity:1.00" />
<!-- End 'C' -->
<!-- Begin 'T' -->
<rect height="0.813952" width="50.000000" x="870.000000" y="97.149340" fill="rgb(0, 100, 0)" style="fill-opacity:1.00" />
<rect height="5.087201" width="10.000000" x="890.000000" y="97.149340" fill="rgb(0, 100, 0)" style="fill-opacity:1.00" />
<!-- End 'T' -->
<!-- Begin 'C' -->
<ellipse cx="895.000000" cy="104.445614" rx="25.000000" ry="2.209072" fill="rgb(0, 0, 128)" style="fill-opacity:1.00" />
<ellipse cx="895.000000" cy="104.445614" rx="16.666667" ry="1.472715" fill="rgb(255, 255, 255)" style="fill-opacity:1.00" />
<rect height="2.209072" width="25.000000" x="895.000000" y="103.341078" fill="rgb(255, 255, 255)" style="fill-opacity:1.00" />
<!-- End 'C' -->
<!-- Begin 'G' -->
<ellipse cx="895.000000" cy="108.021288" rx="25.000000" ry="1.366602" fill="rgb(255, 165, 0)" style="fill-opacity:1.00" />
<ellipse cx="895.000000" cy="108.021288" rx="16.666667" ry="0.911068" fill="rgb(255, 255, 255)" style="fill-opacity:1.00" />
<rect height="1.366602" width="25.000000" x="895.000000" y="107.337987" fill="rgb(255, 255, 255)" style="fill-opacity:1.00" />
<rect height="0.341650" width="25.000000" x="895.000000" y="108.362939" fill="rgb(255, 165, 0)" style="fill-opacity:1.00" />
<rect height="1.024951" width="6.250000" x="913.750000" y="108.362939" fill="rgb(255, 165, 0)" style="fill-opacity:1.00" />
<!-- End 'G' -->
<!-- Begin 'A' -->
<polygon points=" 870.000000, 110.000000, 891.000000, 109.387890, 899.000000, 109.387890, 920.000000, 110.000000, 912.500000, 110.000000, 906.250000, 109.846973, 883.750000, 109.846973, 877.500000, 110.000000" fill="rgb(178, 34, 34)" style="fill-opacity:1.00" />
<!-- End 'A' -->
<!-- Begin 'C' -->
<ellipse cx="955.000000" cy="107.074869" rx="25.000000" ry="0.712901" fill="rgb(0, 0, 128)" style="fill-opacity:1.00" />
<ellipse cx="955.000000" cy="107.074869" rx="16.666667" ry="0.475267" fill="rgb(255, 255, 255)" style="fill-opacity:1.00" />
<rect height="0.712901" width="25.000000" x="955.000000" y="106.718418" fill="rgb(255, 255, 255)" style="fill-opacity:1.00" />
<!-- End 'C' -->
<!-- Begin 'T' -->
<rect height="0.130376" width="50.000000" x="930.000000" y="107.787770" fill="rgb(0, 100, 0)" style="fill-opacity:1.00" />
<rect height="0.814849" width="10.000000" x="950.000000" y="107.787770" fill="rgb(0, 100, 0)" style="fill-opacity:1.00" />
<!-- End 'T' -->
<!-- Begin 'G' -->
<ellipse cx="955.000000" cy="108.961268" rx="25.000000" ry="0.358649" fill="rgb(255, 165, 0)" style="fill-opacity:1.00" />
<ellipse cx="955.000000" cy="108.961268" rx="16.666667" ry="0.239100" fill="rgb(255, 255, 255)" style="fill-opacity:1.00" />
<rect height="0.358649" width="25.000000" x="955.000000" y="108.781944" fill="rgb(255, 255, 255)" style="fill-opacity:1.00" />
<rect height="0.089662" width="25.000000" x="955.000000" y="109.050931" fill="rgb(255, 165, 0)" style="fill-opacity:1.00" />
<rect height="0.268987" width="6.250000" x="973.750000" y="109.050931" fill="rgb(255, 165, 0)" style="fill-opacity:1.00" />
<!-- End 'G' -->
<!-- Begin 'A' -->
<polygon points=" 930.000000, 110.000000, 951.000000, 109.319918, 959.000000, 109.319918, 980.000000, 110.000000, 972.500000, 110.000000, 966.250000, 109.829979, 943.750000, 109.829979, 937.500000, 110.000000" fill="rgb(178, 34, 34)" style="fill-opacity:1.00" />
<!-- End 'A' -->
<text x="520.000000" y="165">
IC = 10.83
</text>

</svg>
