<?xml version="1.0" encoding="UTF-8" standalone="yes"?>
                 <!DOCTYPE svg PUBLIC "-//W3C//DTD SVG 1.0//EN" "http://www.w3.org/TR/2001/REC-SVG-20010904/DTD/svg10.dtd">
                 <svg height="170" width="780" xmlns="http://www.w3.org/2000/svg" xmlns:xlink="http://www.w3.org/1999/xlink">
                 <line x1="85" y1="120" x2="747" y2="120" style="stroke:rgb(99,99,99);stroke-width:2" />
<rect height="7.000000" width="2.000000" x="85.000000" y="120.000000" fill="rgb(0, 0, 0)" style="fill-opacity:1.00" />
<text x="107.000000" y="140">
1
</text>
<rect height="7.000000" width="2.000000" x="145.000000" y="120.000000" fill="rgb(0, 0, 0)" style="fill-opacity:1.00" />
<text x="167.000000" y="140">
2
</text>
<rect height="7.000000" width="2.000000" x="205.000000" y="120.000000" fill="rgb(0, 0, 0)" style="fill-opacity:1.00" />
<text x="227.000000" y="140">
3
</text>
<rect height="7.000000" width="2.000000" x="265.000000" y="120.000000" fill="rgb(0, 0, 0)" style="fill-opacity:1.00" />
<text x="287.000000" y="140">
4
</text>
<rect height="7.000000" width="2.000000" x="325.000000" y="120.000000" fill="rgb(0, 0, 0)" style="fill-opacity:1.00" />
<text x="347.000000" y="140">
5
</text>
<rect height="7.000000" width="2.000000" x="385.000000" y="120.000000" fill="rgb(0, 0, 0)" style="fill-opacity:1.00" />
<text x="407.000000" y="140">
6
</text>
<rect height="7.000000" width="2.000000" x="445.000000" y="120.000000" fill="rgb(0, 0, 0)" style="fill-opacity:1.00" />
<text x="467.000000" y="140">
7
</text>
<rect height="7.000000" width="2.000000" x="505.000000" y="120.000000" fill="rgb(0, 0, 0)" style="fill-opacity:1.00" />
<text x="527.000000" y="140">
8
</text>
<rect height="7.000000" width="2.000000" x="565.000000" y="120.000000" fill="rgb(0, 0, 0)" style="fill-opacity:1.00" />
<text x="587.000000" y="140">
9
</text>
<rect height="7.000000" width="2.000000" x="625.000000" y="120.000000" fill="rgb(0, 0, 0)" style="fill-opacity:1.00" />
<text x="647.000000" y="140">
10
</text>
<rect height="7.000000" width="2.000000" x="685.000000" y="120.000000" fill="rgb(0, 0, 0)" style="fill-opacity:1.00" />
<text x="707.000000" y="140">
11
</text>
<rect height="7.000000" width="2.000000" x="745.000000" y="120.000000" fill="rgb(0, 0, 0)" style="fill-opacity:1.00" />
<line x1="80" y1="112" x2="80" y2="10" style="stroke:rgb(99,99,99);stroke-width:2" />
<rect height="2.000000" width="7.000000" x="73.000000" y="110.000000" fill="rgb(0, 0, 0)" style="fill-opacity:1.00" />
<text x="63" y="115">
0
</text>
<rect height="2.000000" width="7.000000" x="73.000000" y="60.000000" fill="rgb(0, 0, 0)" style="fill-opacity:1.00" />
<text x="63" y="65">
1
</text>
<rect height="2.000000" width="7.000000" x="73.000000" y="10.000000" fill="rgb(0, 0, 0)" style="fill-opacity:1.00" />
<text x="63" y="15">
2
</text>
<text x="50" y="65"
transform="rotate(-90, 50, 70)">
bits
</text>
<!-- Begin 'G' -->
<ellipse cx="115.000000" cy="98.480141" rx="25.000000" ry="4.002031" fill="rgb(255, 165, 0)" style="fill-opacity:1.00" />
<ellipse cx="115.000000" cy="98.480141" rx="16.666667" ry="2.668021" fill="rgb(255, 255, 255)" style="fill-opacity:1.00" />
<rect height="4.002031" width="25.000000" x="115.000000" y="96.479126" fill="rgb(255, 255, 255)" style="fill-opacity:1.00" />
<rect height="1.000508" width="25.000000" x="115.000000" y="99.480649" fill="rgb(255, 165, 0)" style="fill-opacity:1.00" />
<rect height="3.001523" width="6.250000" x="133.750000" y="99.480649" fill="rgb(255, 165, 0)" style="fill-opacity:1.00" />
<!-- End 'G' -->
<!-- Begin 'A' -->
<polygon points=" 90.000000, 106.072580, 111.000000, 102.482172, 119.000000, 102.482172, 140.000000, 106.072580, 132.500000, 106.072580, 126.250000, 105.174978, 103.750000, 105.174978, 97.500000, 106.072580" fill="rgb(178, 34, 34)" style="fill-opacity:1.00" />
<!-- End 'A' -->
<!-- Begin 'C' -->
<ellipse cx="115.000000" cy="107.538638" rx="25.000000" ry="1.466057" fill="rgb(0, 0, 128)" style="fill-opacity:1.00" />
<ellipse cx="115.000000" cy="107.538638" rx="16.666667" ry="0.977372" fill="rgb(255, 255, 255)" style="fill-opacity:1.00" />
<rect height="1.466057" width="25.000000" x="115.000000" y="106.805609" fill="rgb(255, 255, 255)" style="fill-opacity:1.00" />
<!-- End 'C' -->
<!-- Begin 'T' -->
<rect height="0.159249" width="50.000000" x="90.000000" y="109.004695" fill="rgb(0, 100, 0)" style="fill-opacity:1.00" />
<rect height="0.995305" width="10.000000" x="110.000000" y="109.004695" fill="rgb(0, 100, 0)" style="fill-opacity:1.00" />
<!-- End 'T' -->
<!-- Begin 'T' -->
<rect height="0.750803" width="50.000000" x="150.000000" y="99.231069" fill="rgb(0, 100, 0)" style="fill-opacity:1.00" />
<rect height="4.692520" width="10.000000" x="170.000000" y="99.231069" fill="rgb(0, 100, 0)" style="fill-opacity:1.00" />
<!-- End 'T' -->
<!-- Begin 'C' -->
<ellipse cx="175.000000" cy="105.632047" rx="25.000000" ry="1.708458" fill="rgb(0, 0, 128)" style="fill-opacity:1.00" />
<ellipse cx="175.000000" cy="105.632047" rx="16.666667" ry="1.138972" fill="rgb(255, 255, 255)" style="fill-opacity:1.00" />
<rect height="1.708458" width="25.000000" x="175.000000" y="104.777818" fill="rgb(255, 255, 255)" style="fill-opacity:1.00" />
<!-- End 'C' -->
<!-- Begin 'G' -->
<ellipse cx="175.000000" cy="108.148387" rx="25.000000" ry="0.807881" fill="rgb(255, 165, 0)" style="fill-opacity:1.00" />
<ellipse cx="175.000000" cy="108.148387" rx="16.666667" ry="0.538588" fill="rgb(255, 255, 255)" style="fill-opacity:1.00" />
<rect height="0.807881" width="25.000000" x="175.000000" y="107.744446" fill="rgb(255, 255, 255)" style="fill-opacity:1.00" />
<rect height="0.201970" width="25.000000" x="175.000000" y="108.350357" fill="rgb(255, 165, 0)" style="fill-opacity:1.00" />
<rect height="0.605911" width="6.250000" x="193.750000" y="108.350357" fill="rgb(255, 165, 0)" style="fill-opacity:1.00" />
<!-- End 'G' -->
<!-- Begin 'A' -->
<polygon points=" 150.000000, 110.000000, 171.000000, 108.956268, 179.000000, 108.956268, 200.000000, 110.000000, 192.500000, 110.000000, 186.250000, 109.739067, 163.750000, 109.739067, 157.500000, 110.000000" fill="rgb(178, 34, 34)" style="fill-opacity:1.00" />
<!-- End 'A' -->
<!-- Begin 'C' -->
<ellipse cx="235.000000" cy="61.266477" rx="25.000000" ry="48.042715" fill="rgb(0, 0, 128)" style="fill-opacity:1.00" />
<ellipse cx="235.000000" cy="61.266477" rx="16.666667" ry="32.028477" fill="rgb(255, 255, 255)" style="fill-opacity:1.00" />
<rect height="48.042715" width="25.000000" x="235.000000" y="37.245119" fill="rgb(255, 255, 255)" style="fill-opacity:1.00" />
<!-- End 'C' -->
<!-- Begin 'A' -->
<polygon points=" 210.000000, 109.947310, 231.000000, 109.309192, 239.000000, 109.309192, 260.000000, 109.947310, 252.500000, 109.947310, 246.250000, 109.787781, 223.750000, 109.787781, 217.500000, 109.947310" fill="rgb(178, 34, 34)" style="fill-opacity:1.00" />
<!-- End 'A' -->
<!-- Begin 'G' -->
<ellipse cx="235.000000" cy="109.961750" rx="25.000000" ry="0.014440" fill="rgb(255, 165, 0)" style="fill-opacity:1.00" />
<ellipse cx="235.000000" cy="109.961750" rx="16.666667" ry="0.009627" fill="rgb(255, 255, 255)" style="fill-opacity:1.00" />
<rect height="0.014440" width="25.000000" x="235.000000" y="109.954530" fill="rgb(255, 255, 255)" style="fill-opacity:1.00" />
<rect height="0.003610" width="25.000000" x="235.000000" y="109.965360" fill="rgb(255, 165, 0)" style="fill-opacity:1.00" />
<rect height="0.010830" width="6.250000" x="253.750000" y="109.965360" fill="rgb(255, 165, 0)" style="fill-opacity:1.00" />
<!-- End 'G' -->
<!-- Begin 'T' -->
<rect height="0.003810" width="50.000000" x="210.000000" y="109.976190" fill="rgb(0, 100, 0)" style="fill-opacity:1.00" />
<rect height="0.023810" width="10.000000" x="230.000000" y="109.976190" fill="rgb(0, 100, 0)" style="fill-opacity:1.00" />
<!-- End 'T' -->
<!-- Begin 'A' -->
<polygon points=" 270.000000, 107.015587, 291.000000, 23.338738, 299.000000, 23.338738, 320.000000, 107.015587, 312.500000, 107.015587, 306.250000, 86.096375, 283.750000, 86.096375, 277.500000, 107.015587" fill="rgb(178, 34, 34)" style="fill-opacity:1.00" />
<polygon points=" 295.000000, 40.074108, 287.000000, 72.544847, 302.000000, 72.544847" fill="rgb(255, 255, 255)" style="fill-opacity:1.00" />
<!-- End 'A' -->
<!-- Begin 'G' -->
<ellipse cx="295.000000" cy="107.765325" rx="25.000000" ry="0.749738" fill="rgb(255, 165, 0)" style="fill-opacity:1.00" />
<ellipse cx="295.000000" cy="107.765325" rx="16.666667" ry="0.499825" fill="rgb(255, 255, 255)" style="fill-opacity:1.00" />
<rect height="0.749738" width="25.000000" x="295.000000" y="107.390456" fill="rgb(255, 255, 255)" style="fill-opacity:1.00" />
<rect height="0.187434" width="25.000000" x="295.000000" y="107.952759" fill="rgb(255, 165, 0)" style="fill-opacity:1.00" />
<rect height="0.562303" width="6.250000" x="313.750000" y="107.952759" fill="rgb(255, 165, 0)" style="fill-opacity:1.00" />
<!-- End 'G' -->
<!-- Begin 'T' -->
<rect height="0.151980" width="50.000000" x="270.000000" y="108.515062" fill="rgb(0, 100, 0)" style="fill-opacity:1.00" />
<rect height="0.949875" width="10.000000" x="290.000000" y="108.515062" fill="rgb(0, 100, 0)" style="fill-opacity:1.00" />
<!-- End 'T' -->
<!-- Begin 'C' -->
<ellipse cx="295.000000" cy="109.732469" rx="25.000000" ry="0.267531" fill="rgb(0, 0, 128)" style="fill-opacity:1.00" />
<ellipse cx="295.000000" cy="109.732469" rx="16.666667" ry="0.178354" fill="rgb(255, 255, 255)" style="fill-opacity:1.00" />
<rect height="0.267531" width="25.000000" x="295.000000" y="109.598703" fill="rgb(255, 255, 255)" style="fill-opacity:1.00" />
<!-- End 'C' -->
<!-- Begin 'C' -->
<ellipse cx="355.000000" cy="77.578149" rx="25.000000" ry="20.808289" fill="rgb(0, 0, 128)" style="fill-opacity:1.00" />
<ellipse cx="355.000000" cy="77.578149" rx="16.666667" ry="13.872193" fill="rgb(255, 255, 255)" style="fill-opacity:1.00" />
<rect height="20.808289" width="25.000000" x="355.000000" y="67.174005" fill="rgb(255, 255, 255)" style="fill-opacity:1.00" />
<!-- End 'C' -->
<!-- Begin 'T' -->
<rect height="1.396127" width="50.000000" x="330.000000" y="98.386438" fill="rgb(0, 100, 0)" style="fill-opacity:1.00" />
<rect height="8.725795" width="10.000000" x="350.000000" y="98.386438" fill="rgb(0, 100, 0)" style="fill-opacity:1.00" />
<!-- End 'T' -->
<!-- Begin 'G' -->
<ellipse cx="355.000000" cy="108.550350" rx="25.000000" ry="1.438117" fill="rgb(255, 165, 0)" style="fill-opacity:1.00" />
<ellipse cx="355.000000" cy="108.550350" rx="16.666667" ry="0.958744" fill="rgb(255, 255, 255)" style="fill-opacity:1.00" />
<rect height="1.438117" width="25.000000" x="355.000000" y="107.831291" fill="rgb(255, 255, 255)" style="fill-opacity:1.00" />
<rect height="0.359529" width="25.000000" x="355.000000" y="108.909879" fill="rgb(255, 165, 0)" style="fill-opacity:1.00" />
<rect height="1.078587" width="6.250000" x="373.750000" y="108.909879" fill="rgb(255, 165, 0)" style="fill-opacity:1.00" />
<!-- End 'G' -->
<!-- Begin 'A' -->
<polygon points=" 330.000000, 110.000000, 351.000000, 109.988466, 359.000000, 109.988466, 380.000000, 110.000000, 372.500000, 110.000000, 366.250000, 109.997117, 343.750000, 109.997117, 337.500000, 110.000000" fill="rgb(178, 34, 34)" style="fill-opacity:1.00" />
<!-- End 'A' -->
<!-- Begin 'G' -->
<ellipse cx="415.000000" cy="77.374878" rx="25.000000" ry="21.289765" fill="rgb(255, 165, 0)" style="fill-opacity:1.00" />
<ellipse cx="415.000000" cy="77.374878" rx="16.666667" ry="14.193177" fill="rgb(255, 255, 255)" style="fill-opacity:1.00" />
<rect height="21.289765" width="25.000000" x="415.000000" y="66.729996" fill="rgb(255, 255, 255)" style="fill-opacity:1.00" />
<rect height="5.322441" width="25.000000" x="415.000000" y="82.697320" fill="rgb(255, 165, 0)" style="fill-opacity:1.00" />
<rect height="15.967324" width="6.250000" x="433.750000" y="82.697320" fill="rgb(255, 165, 0)" style="fill-opacity:1.00" />
<!-- End 'G' -->
<!-- Begin 'A' -->
<polygon points=" 390.000000, 106.934773, 411.000000, 98.664644, 419.000000, 98.664644, 440.000000, 106.934773, 432.500000, 106.934773, 426.250000, 104.867240, 403.750000, 104.867240, 397.500000, 106.934773" fill="rgb(178, 34, 34)" style="fill-opacity:1.00" />
<polygon points=" 415.000000, 100.318669, 407.000000, 102.626721, 422.000000, 102.626721" fill="rgb(255, 255, 255)" style="fill-opacity:1.00" />
<!-- End 'A' -->
<!-- Begin 'C' -->
<ellipse cx="415.000000" cy="108.459261" rx="25.000000" ry="1.524488" fill="rgb(0, 0, 128)" style="fill-opacity:1.00" />
<ellipse cx="415.000000" cy="108.459261" rx="16.666667" ry="1.016325" fill="rgb(255, 255, 255)" style="fill-opacity:1.00" />
<rect height="1.524488" width="25.000000" x="415.000000" y="107.697017" fill="rgb(255, 255, 255)" style="fill-opacity:1.00" />
<!-- End 'C' -->
<!-- Begin 'T' -->
<rect height="0.002600" width="50.000000" x="390.000000" y="109.983749" fill="rgb(0, 100, 0)" style="fill-opacity:1.00" />
<rect height="0.016251" width="10.000000" x="410.000000" y="109.983749" fill="rgb(0, 100, 0)" style="fill-opacity:1.00" />
<!-- End 'T' -->
<!-- Begin 'T' -->
<rect height="14.105912" width="50.000000" x="450.000000" y="19.708217" fill="rgb(0, 100, 0)" style="fill-opacity:1.00" />
<rect height="88.161948" width="10.000000" x="470.000000" y="19.708217" fill="rgb(0, 100, 0)" style="fill-opacity:1.00" />
<!-- End 'T' -->
<!-- Begin 'C' -->
<ellipse cx="475.000000" cy="108.488556" rx="25.000000" ry="0.618391" fill="rgb(0, 0, 128)" style="fill-opacity:1.00" />
<ellipse cx="475.000000" cy="108.488556" rx="16.666667" ry="0.412261" fill="rgb(255, 255, 255)" style="fill-opacity:1.00" />
<rect height="0.618391" width="25.000000" x="475.000000" y="108.179360" fill="rgb(255, 255, 255)" style="fill-opacity:1.00" />
<!-- End 'C' -->
<!-- Begin 'G' -->
<ellipse cx="475.000000" cy="109.338325" rx="25.000000" ry="0.231379" fill="rgb(255, 165, 0)" style="fill-opacity:1.00" />
<ellipse cx="475.000000" cy="109.338325" rx="16.666667" ry="0.154252" fill="rgb(255, 255, 255)" style="fill-opacity:1.00" />
<rect height="0.231379" width="25.000000" x="475.000000" y="109.222636" fill="rgb(255, 255, 255)" style="fill-opacity:1.00" />
<rect height="0.057845" width="25.000000" x="475.000000" y="109.396170" fill="rgb(255, 165, 0)" style="fill-opacity:1.00" />
<rect height="0.173534" width="6.250000" x="493.750000" y="109.396170" fill="rgb(255, 165, 0)" style="fill-opacity:1.00" />
<!-- End 'G' -->
<!-- Begin 'A' -->
<polygon points=" 450.000000, 110.000000, 471.000000, 109.569704, 479.000000, 109.569704, 500.000000, 110.000000, 492.500000, 110.000000, 486.250000, 109.892426, 463.750000, 109.892426, 457.500000, 110.000000" fill="rgb(178, 34, 34)" style="fill-opacity:1.00" />
<!-- End 'A' -->
<!-- Begin 'G' -->
<ellipse cx="535.000000" cy="60.505736" rx="25.000000" ry="49.284497" fill="rgb(255, 165, 0)" style="fill-opacity:1.00" />
<ellipse cx="535.000000" cy="60.505736" rx="16.666667" ry="32.856331" fill="rgb(255, 255, 255)" style="fill-opacity:1.00" />
<rect height="49.284497" width="25.000000" x="535.000000" y="35.863488" fill="rgb(255, 255, 255)" style="fill-opacity:1.00" />
<rect height="12.321124" width="25.000000" x="535.000000" y="72.826861" fill="rgb(255, 165, 0)" style="fill-opacity:1.00" />
<rect height="36.963373" width="6.250000" x="553.750000" y="72.826861" fill="rgb(255, 165, 0)" style="fill-opacity:1.00" />
<!-- End 'G' -->
<!-- Begin 'C' -->
<ellipse cx="535.000000" cy="109.852890" rx="25.000000" ry="0.062656" fill="rgb(0, 0, 128)" style="fill-opacity:1.00" />
<ellipse cx="535.000000" cy="109.852890" rx="16.666667" ry="0.041771" fill="rgb(255, 255, 255)" style="fill-opacity:1.00" />
<rect height="0.062656" width="25.000000" x="535.000000" y="109.821562" fill="rgb(255, 255, 255)" style="fill-opacity:1.00" />
<!-- End 'C' -->
<!-- Begin 'T' -->
<rect height="0.011942" width="50.000000" x="510.000000" y="109.915546" fill="rgb(0, 100, 0)" style="fill-opacity:1.00" />
<rect height="0.074639" width="10.000000" x="530.000000" y="109.915546" fill="rgb(0, 100, 0)" style="fill-opacity:1.00" />
<!-- End 'T' -->
<!-- Begin 'A' -->
<polygon points=" 510.000000, 110.000000, 531.000000, 109.990185, 539.000000, 109.990185, 560.000000, 110.000000, 552.500000, 110.000000, 546.250000, 109.997546, 523.750000, 109.997546, 517.500000, 110.000000" fill="rgb(178, 34, 34)" style="fill-opacity:1.00" />
<!-- End 'A' -->
<!-- Begin 'A' -->
<polygon points=" 570.000000, 103.375979, 591.000000, 97.719375, 599.000000, 97.719375, 620.000000, 103.375979, 612.500000, 103.375979, 606.250000, 101.961828, 583.750000, 101.961828, 577.500000, 103.375979" fill="rgb(178, 34, 34)" style="fill-opacity:1.00" />
<!-- End 'A' -->
<!-- Begin 'G' -->
<ellipse cx="595.000000" cy="105.242370" rx="25.000000" ry="1.866391" fill="rgb(255, 165, 0)" style="fill-opacity:1.00" />
<ellipse cx="595.000000" cy="105.242370" rx="16.666667" ry="1.244261" fill="rgb(255, 255, 255)" style="fill-opacity:1.00" />
<rect height="1.866391" width="25.000000" x="595.000000" y="104.309174" fill="rgb(255, 255, 255)" style="fill-opacity:1.00" />
<rect height="0.466598" width="25.000000" x="595.000000" y="105.708967" fill="rgb(255, 165, 0)" style="fill-opacity:1.00" />
<rect height="1.399793" width="6.250000" x="613.750000" y="105.708967" fill="rgb(255, 165, 0)" style="fill-opacity:1.00" />
<!-- End 'G' -->
<!-- Begin 'C' -->
<ellipse cx="595.000000" cy="108.003079" rx="25.000000" ry="0.894319" fill="rgb(0, 0, 128)" style="fill-opacity:1.00" />
<ellipse cx="595.000000" cy="108.003079" rx="16.666667" ry="0.596212" fill="rgb(255, 255, 255)" style="fill-opacity:1.00" />
<rect height="0.894319" width="25.000000" x="595.000000" y="107.555920" fill="rgb(255, 255, 255)" style="fill-opacity:1.00" />
<!-- End 'C' -->
<!-- Begin 'T' -->
<rect height="0.176416" width="50.000000" x="570.000000" y="108.897398" fill="rgb(0, 100, 0)" style="fill-opacity:1.00" />
<rect height="1.102602" width="10.000000" x="590.000000" y="108.897398" fill="rgb(0, 100, 0)" style="fill-opacity:1.00" />
<!-- End 'T' -->
<!-- Begin 'C' -->
<ellipse cx="655.000000" cy="96.279773" rx="25.000000" ry="5.290886" fill="rgb(0, 0, 128)" style="fill-opacity:1.00" />
<ellipse cx="655.000000" cy="96.279773" rx="16.666667" ry="3.527258" fill="rgb(255, 255, 255)" style="fill-opacity:1.00" />
<rect height="5.290886" width="25.000000" x="655.000000" y="93.634330" fill="rgb(255, 255, 255)" style="fill-opacity:1.00" />
<!-- End 'C' -->
<!-- Begin 'T' -->
<rect height="0.635117" width="50.000000" x="630.000000" y="101.570660" fill="rgb(0, 100, 0)" style="fill-opacity:1.00" />
<rect height="3.969483" width="10.000000" x="650.000000" y="101.570660" fill="rgb(0, 100, 0)" style="fill-opacity:1.00" />
<!-- End 'T' -->
<!-- Begin 'G' -->
<ellipse cx="655.000000" cy="107.233589" rx="25.000000" ry="1.693446" fill="rgb(255, 165, 0)" style="fill-opacity:1.00" />
<ellipse cx="655.000000" cy="107.233589" rx="16.666667" ry="1.128964" fill="rgb(255, 255, 255)" style="fill-opacity:1.00" />
<rect height="1.693446" width="25.000000" x="655.000000" y="106.386866" fill="rgb(255, 255, 255)" style="fill-opacity:1.00" />
<rect height="0.423362" width="25.000000" x="655.000000" y="107.656950" fill="rgb(255, 165, 0)" style="fill-opacity:1.00" />
<rect height="1.270085" width="6.250000" x="673.750000" y="107.656950" fill="rgb(255, 165, 0)" style="fill-opacity:1.00" />
<!-- End 'G' -->
<!-- Begin 'A' -->
<polygon points=" 630.000000, 110.000000, 651.000000, 108.927035, 659.000000, 108.927035, 680.000000, 110.000000, 672.500000, 110.000000, 666.250000, 109.731759, 643.750000, 109.731759, 637.500000, 110.000000" fill="rgb(178, 34, 34)" style="fill-opacity:1.00" />
<!-- End 'A' -->
<!-- Begin 'C' -->
<ellipse cx="715.000000" cy="104.356583" rx="25.000000" ry="1.615418" fill="rgb(0, 0, 128)" style="fill-opacity:1.00" />
<ellipse cx="715.000000" cy="104.356583" rx="16.666667" ry="1.076945" fill="rgb(255, 255, 255)" style="fill-opacity:1.00" />
<rect height="1.615418" width="25.000000" x="715.000000" y="103.548874" fill="rgb(255, 255, 255)" style="fill-opacity:1.00" />
<!-- End 'C' -->
<!-- Begin 'T' -->
<rect height="0.259511" width="50.000000" x="690.000000" y="105.972001" fill="rgb(0, 100, 0)" style="fill-opacity:1.00" />
<rect height="1.621946" width="10.000000" x="710.000000" y="105.972001" fill="rgb(0, 100, 0)" style="fill-opacity:1.00" />
<!-- End 'T' -->
<!-- Begin 'G' -->
<ellipse cx="715.000000" cy="108.302199" rx="25.000000" ry="0.708253" fill="rgb(255, 165, 0)" style="fill-opacity:1.00" />
<ellipse cx="715.000000" cy="108.302199" rx="16.666667" ry="0.472168" fill="rgb(255, 255, 255)" style="fill-opacity:1.00" />
<rect height="0.708253" width="25.000000" x="715.000000" y="107.948073" fill="rgb(255, 255, 255)" style="fill-opacity:1.00" />
<rect height="0.177063" width="25.000000" x="715.000000" y="108.479263" fill="rgb(255, 165, 0)" style="fill-opacity:1.00" />
<rect height="0.531189" width="6.250000" x="733.750000" y="108.479263" fill="rgb(255, 165, 0)" style="fill-opacity:1.00" />
<!-- End 'G' -->
<!-- Begin 'A' -->
<polygon points=" 690.000000, 110.000000, 711.000000, 109.010452, 719.000000, 109.010452, 740.000000, 110.000000, 732.500000, 110.000000, 726.250000, 109.752613, 703.750000, 109.752613, 697.500000, 110.000000" fill="rgb(178, 34, 34)" style="fill-opacity:1.00" />
<!-- End 'A' -->
<text x="400.000000" y="165">
IC = 10.89
</text>

</svg>
