<?xml version="1.0" encoding="UTF-8" standalone="yes"?>
                 <!DOCTYPE svg PUBLIC "-//W3C//DTD SVG 1.0//EN" "http://www.w3.org/TR/2001/REC-SVG-20010904/DTD/svg10.dtd">
                 <svg height="170" width="780" xmlns="http://www.w3.org/2000/svg" xmlns:xlink="http://www.w3.org/1999/xlink">
                 <line x1="85" y1="120" x2="747" y2="120" style="stroke:rgb(99,99,99);stroke-width:2" />
<rect height="7.000000" width="2.000000" x="85.000000" y="120.000000" fill="rgb(0, 0, 0)" style="fill-opacity:1.00" />
<text x="107.000000" y="140">
1
</text>
<rect height="7.000000" width="2.000000" x="145.000000" y="120.000000" fill="rgb(0, 0, 0)" style="fill-opacity:1.00" />
<text x="167.000000" y="140">
2
</text>
<rect height="7.000000" width="2.000000" x="205.000000" y="120.000000" fill="rgb(0, 0, 0)" style="fill-opacity:1.00" />
<text x="227.000000" y="140">
3
</text>
<rect height="7.000000" width="2.000000" x="265.000000" y="120.000000" fill="rgb(0, 0, 0)" style="fill-opacity:1.00" />
<text x="287.000000" y="140">
4
</text>
<rect height="7.000000" width="2.000000" x="325.000000" y="120.000000" fill="rgb(0, 0, 0)" style="fill-opacity:1.00" />
<text x="347.000000" y="140">
5
</text>
<rect height="7.000000" width="2.000000" x="385.000000" y="120.000000" fill="rgb(0, 0, 0)" style="fill-opacity:1.00" />
<text x="407.000000" y="140">
6
</text>
<rect height="7.000000" width="2.000000" x="445.000000" y="120.000000" fill="rgb(0, 0, 0)" style="fill-opacity:1.00" />
<text x="467.000000" y="140">
7
</text>
<rect height="7.000000" width="2.000000" x="505.000000" y="120.000000" fill="rgb(0, 0, 0)" style="fill-opacity:1.00" />
<text x="527.000000" y="140">
8
</text>
<rect height="7.000000" width="2.000000" x="565.000000" y="120.000000" fill="rgb(0, 0, 0)" style="fill-opacity:1.00" />
<text x="587.000000" y="140">
9
</text>
<rect height="7.000000" width="2.000000" x="625.000000" y="120.000000" fill="rgb(0, 0, 0)" style="fill-opacity:1.00" />
<text x="647.000000" y="140">
10
</text>
<rect height="7.000000" width="2.000000" x="685.000000" y="120.000000" fill="rgb(0, 0, 0)" style="fill-opacity:1.00" />
<text x="707.000000" y="140">
11
</text>
<rect height="7.000000" width="2.000000" x="745.000000" y="120.000000" fill="rgb(0, 0, 0)" style="fill-opacity:1.00" />
<line x1="80" y1="112" x2="80" y2="10" style="stroke:rgb(99,99,99);stroke-width:2" />
<rect height="2.000000" width="7.000000" x="73.000000" y="110.000000" fill="rgb(0, 0, 0)" style="fill-opacity:1.00" />
<text x="63" y="115">
0
</text>
<rect height="2.000000" width="7.000000" x="73.000000" y="60.000000" fill="rgb(0, 0, 0)" style="fill-opacity:1.00" />
<text x="63" y="65">
1
</text>
<rect height="2.000000" width="7.000000" x="73.000000" y="10.000000" fill="rgb(0, 0, 0)" style="fill-opacity:1.00" />
<text x="63" y="15">
2
</text>
<text x="50" y="65"
transform="rotate(-90, 50, 70)">
bits
</text>
<!-- Begin 'G' -->
<ellipse cx="115.000000" cy="96.438893" rx="25.000000" ry="5.154792" fill="rgb(255, 165, 0)" style="fill-opacity:1.00" />
<ellipse cx="115.000000" cy="96.438893" rx="16.666667" ry="3.436528" fill="rgb(255, 255, 255)" style="fill-opacity:1.00" />
<rect height="5.154792" width="25.000000" x="115.000000" y="93.861497" fill="rgb(255, 255, 255)" style="fill-opacity:1.00" />
<rect height="1.288698" width="25.000000" x="115.000000" y="97.727591" fill="rgb(255, 165, 0)" style="fill-opacity:1.00" />
<rect height="3.866094" width="6.250000" x="133.750000" y="97.727591" fill="rgb(255, 165, 0)" style="fill-opacity:1.00" />
<!-- End 'G' -->
<!-- Begin 'A' -->
<polygon points=" 90.000000, 105.668370, 111.000000, 101.593685, 119.000000, 101.593685, 140.000000, 105.668370, 132.500000, 105.668370, 126.250000, 104.649699, 103.750000, 104.649699, 97.500000, 105.668370" fill="rgb(178, 34, 34)" style="fill-opacity:1.00" />
<!-- End 'A' -->
<!-- Begin 'C' -->
<ellipse cx="115.000000" cy="107.312706" rx="25.000000" ry="1.644336" fill="rgb(0, 0, 128)" style="fill-opacity:1.00" />
<ellipse cx="115.000000" cy="107.312706" rx="16.666667" ry="1.096224" fill="rgb(255, 255, 255)" style="fill-opacity:1.00" />
<rect height="1.644336" width="25.000000" x="115.000000" y="106.490538" fill="rgb(255, 255, 255)" style="fill-opacity:1.00" />
<!-- End 'C' -->
<!-- Begin 'T' -->
<rect height="0.166873" width="50.000000" x="90.000000" y="108.957041" fill="rgb(0, 100, 0)" style="fill-opacity:1.00" />
<rect height="1.042959" width="10.000000" x="110.000000" y="108.957041" fill="rgb(0, 100, 0)" style="fill-opacity:1.00" />
<!-- End 'T' -->
<!-- Begin 'T' -->
<rect height="0.798552" width="50.000000" x="150.000000" y="98.808281" fill="rgb(0, 100, 0)" style="fill-opacity:1.00" />
<rect height="4.990952" width="10.000000" x="170.000000" y="98.808281" fill="rgb(0, 100, 0)" style="fill-opacity:1.00" />
<!-- End 'T' -->
<!-- Begin 'C' -->
<ellipse cx="175.000000" cy="105.531670" rx="25.000000" ry="1.732437" fill="rgb(0, 0, 128)" style="fill-opacity:1.00" />
<ellipse cx="175.000000" cy="105.531670" rx="16.666667" ry="1.154958" fill="rgb(255, 255, 255)" style="fill-opacity:1.00" />
<rect height="1.732437" width="25.000000" x="175.000000" y="104.665451" fill="rgb(255, 255, 255)" style="fill-opacity:1.00" />
<!-- End 'C' -->
<!-- Begin 'G' -->
<ellipse cx="175.000000" cy="108.096401" rx="25.000000" ry="0.832295" fill="rgb(255, 165, 0)" style="fill-opacity:1.00" />
<ellipse cx="175.000000" cy="108.096401" rx="16.666667" ry="0.554863" fill="rgb(255, 255, 255)" style="fill-opacity:1.00" />
<rect height="0.832295" width="25.000000" x="175.000000" y="107.680254" fill="rgb(255, 255, 255)" style="fill-opacity:1.00" />
<rect height="0.208074" width="25.000000" x="175.000000" y="108.304475" fill="rgb(255, 165, 0)" style="fill-opacity:1.00" />
<rect height="0.624221" width="6.250000" x="193.750000" y="108.304475" fill="rgb(255, 165, 0)" style="fill-opacity:1.00" />
<!-- End 'G' -->
<!-- Begin 'A' -->
<polygon points=" 150.000000, 110.000000, 171.000000, 108.928696, 179.000000, 108.928696, 200.000000, 110.000000, 192.500000, 110.000000, 186.250000, 109.732174, 163.750000, 109.732174, 157.500000, 110.000000" fill="rgb(178, 34, 34)" style="fill-opacity:1.00" />
<!-- End 'A' -->
<!-- Begin 'C' -->
<ellipse cx="235.000000" cy="61.356633" rx="25.000000" ry="47.887147" fill="rgb(0, 0, 128)" style="fill-opacity:1.00" />
<ellipse cx="235.000000" cy="61.356633" rx="16.666667" ry="31.924765" fill="rgb(255, 255, 255)" style="fill-opacity:1.00" />
<rect height="47.887147" width="25.000000" x="235.000000" y="37.413059" fill="rgb(255, 255, 255)" style="fill-opacity:1.00" />
<!-- End 'C' -->
<!-- Begin 'A' -->
<polygon points=" 210.000000, 109.948532, 231.000000, 109.243780, 239.000000, 109.243780, 260.000000, 109.948532, 252.500000, 109.948532, 246.250000, 109.772344, 223.750000, 109.772344, 217.500000, 109.948532" fill="rgb(178, 34, 34)" style="fill-opacity:1.00" />
<!-- End 'A' -->
<!-- Begin 'G' -->
<ellipse cx="235.000000" cy="109.964147" rx="25.000000" ry="0.015616" fill="rgb(255, 165, 0)" style="fill-opacity:1.00" />
<ellipse cx="235.000000" cy="109.964147" rx="16.666667" ry="0.010410" fill="rgb(255, 255, 255)" style="fill-opacity:1.00" />
<rect height="0.015616" width="25.000000" x="235.000000" y="109.956340" fill="rgb(255, 255, 255)" style="fill-opacity:1.00" />
<rect height="0.003904" width="25.000000" x="235.000000" y="109.968051" fill="rgb(255, 165, 0)" style="fill-opacity:1.00" />
<rect height="0.011712" width="6.250000" x="253.750000" y="109.968051" fill="rgb(255, 165, 0)" style="fill-opacity:1.00" />
<!-- End 'G' -->
<!-- Begin 'T' -->
<rect height="0.003238" width="50.000000" x="210.000000" y="109.979763" fill="rgb(0, 100, 0)" style="fill-opacity:1.00" />
<rect height="0.020237" width="10.000000" x="230.000000" y="109.979763" fill="rgb(0, 100, 0)" style="fill-opacity:1.00" />
<!-- End 'T' -->
<!-- Begin 'A' -->
<polygon points=" 270.000000, 107.062249, 291.000000, 23.092471, 299.000000, 23.092471, 320.000000, 107.062249, 312.500000, 107.062249, 306.250000, 86.069805, 283.750000, 86.069805, 277.500000, 107.062249" fill="rgb(178, 34, 34)" style="fill-opacity:1.00" />
<polygon points=" 295.000000, 39.886427, 287.000000, 72.474338, 302.000000, 72.474338" fill="rgb(255, 255, 255)" style="fill-opacity:1.00" />
<!-- End 'A' -->
<!-- Begin 'G' -->
<ellipse cx="295.000000" cy="107.829411" rx="25.000000" ry="0.767161" fill="rgb(255, 165, 0)" style="fill-opacity:1.00" />
<ellipse cx="295.000000" cy="107.829411" rx="16.666667" ry="0.511441" fill="rgb(255, 255, 255)" style="fill-opacity:1.00" />
<rect height="0.767161" width="25.000000" x="295.000000" y="107.445830" fill="rgb(255, 255, 255)" style="fill-opacity:1.00" />
<rect height="0.191790" width="25.000000" x="295.000000" y="108.021201" fill="rgb(255, 165, 0)" style="fill-opacity:1.00" />
<rect height="0.575371" width="6.250000" x="313.750000" y="108.021201" fill="rgb(255, 165, 0)" style="fill-opacity:1.00" />
<!-- End 'G' -->
<!-- Begin 'T' -->
<rect height="0.147611" width="50.000000" x="270.000000" y="108.596572" fill="rgb(0, 100, 0)" style="fill-opacity:1.00" />
<rect height="0.922568" width="10.000000" x="290.000000" y="108.596572" fill="rgb(0, 100, 0)" style="fill-opacity:1.00" />
<!-- End 'T' -->
<!-- Begin 'C' -->
<ellipse cx="295.000000" cy="109.759570" rx="25.000000" ry="0.240430" fill="rgb(0, 0, 128)" style="fill-opacity:1.00" />
<ellipse cx="295.000000" cy="109.759570" rx="16.666667" ry="0.160287" fill="rgb(255, 255, 255)" style="fill-opacity:1.00" />
<rect height="0.240430" width="25.000000" x="295.000000" y="109.639355" fill="rgb(255, 255, 255)" style="fill-opacity:1.00" />
<!-- End 'C' -->
<!-- Begin 'C' -->
<ellipse cx="355.000000" cy="77.532152" rx="25.000000" ry="20.820887" fill="rgb(0, 0, 128)" style="fill-opacity:1.00" />
<ellipse cx="355.000000" cy="77.532152" rx="16.666667" ry="13.880592" fill="rgb(255, 255, 255)" style="fill-opacity:1.00" />
<rect height="20.820887" width="25.000000" x="355.000000" y="67.121709" fill="rgb(255, 255, 255)" style="fill-opacity:1.00" />
<!-- End 'C' -->
<!-- Begin 'T' -->
<rect height="1.410597" width="50.000000" x="330.000000" y="98.353040" fill="rgb(0, 100, 0)" style="fill-opacity:1.00" />
<rect height="8.816231" width="10.000000" x="350.000000" y="98.353040" fill="rgb(0, 100, 0)" style="fill-opacity:1.00" />
<!-- End 'T' -->
<!-- Begin 'G' -->
<ellipse cx="355.000000" cy="108.579550" rx="25.000000" ry="1.410279" fill="rgb(255, 165, 0)" style="fill-opacity:1.00" />
<ellipse cx="355.000000" cy="108.579550" rx="16.666667" ry="0.940186" fill="rgb(255, 255, 255)" style="fill-opacity:1.00" />
<rect height="1.410279" width="25.000000" x="355.000000" y="107.874410" fill="rgb(255, 255, 255)" style="fill-opacity:1.00" />
<rect height="0.352570" width="25.000000" x="355.000000" y="108.932120" fill="rgb(255, 165, 0)" style="fill-opacity:1.00" />
<rect height="1.057710" width="6.250000" x="373.750000" y="108.932120" fill="rgb(255, 165, 0)" style="fill-opacity:1.00" />
<!-- End 'G' -->
<!-- Begin 'A' -->
<polygon points=" 330.000000, 110.000000, 351.000000, 109.989829, 359.000000, 109.989829, 380.000000, 110.000000, 372.500000, 110.000000, 366.250000, 109.997457, 343.750000, 109.997457, 337.500000, 110.000000" fill="rgb(178, 34, 34)" style="fill-opacity:1.00" />
<!-- End 'A' -->
<!-- Begin 'G' -->
<ellipse cx="415.000000" cy="77.189199" rx="25.000000" ry="21.482328" fill="rgb(255, 165, 0)" style="fill-opacity:1.00" />
<ellipse cx="415.000000" cy="77.189199" rx="16.666667" ry="14.321552" fill="rgb(255, 255, 255)" style="fill-opacity:1.00" />
<rect height="21.482328" width="25.000000" x="415.000000" y="66.448035" fill="rgb(255, 255, 255)" style="fill-opacity:1.00" />
<rect height="5.370582" width="25.000000" x="415.000000" y="82.559781" fill="rgb(255, 165, 0)" style="fill-opacity:1.00" />
<rect height="16.111746" width="6.250000" x="433.750000" y="82.559781" fill="rgb(255, 165, 0)" style="fill-opacity:1.00" />
<!-- End 'G' -->
<!-- Begin 'A' -->
<polygon points=" 390.000000, 107.034406, 411.000000, 98.671527, 419.000000, 98.671527, 440.000000, 107.034406, 432.500000, 107.034406, 426.250000, 104.943686, 403.750000, 104.943686, 397.500000, 107.034406" fill="rgb(178, 34, 34)" style="fill-opacity:1.00" />
<polygon points=" 415.000000, 100.344102, 407.000000, 102.689254, 422.000000, 102.689254" fill="rgb(255, 255, 255)" style="fill-opacity:1.00" />
<!-- End 'A' -->
<!-- Begin 'C' -->
<ellipse cx="415.000000" cy="108.510867" rx="25.000000" ry="1.476461" fill="rgb(0, 0, 128)" style="fill-opacity:1.00" />
<ellipse cx="415.000000" cy="108.510867" rx="16.666667" ry="0.984307" fill="rgb(255, 255, 255)" style="fill-opacity:1.00" />
<rect height="1.476461" width="25.000000" x="415.000000" y="107.772636" fill="rgb(255, 255, 255)" style="fill-opacity:1.00" />
<!-- End 'C' -->
<!-- Begin 'T' -->
<rect height="0.002028" width="50.000000" x="390.000000" y="109.987328" fill="rgb(0, 100, 0)" style="fill-opacity:1.00" />
<rect height="0.012672" width="10.000000" x="410.000000" y="109.987328" fill="rgb(0, 100, 0)" style="fill-opacity:1.00" />
<!-- End 'T' -->
<!-- Begin 'T' -->
<rect height="14.011875" width="50.000000" x="450.000000" y="20.184044" fill="rgb(0, 100, 0)" style="fill-opacity:1.00" />
<rect height="87.574220" width="10.000000" x="470.000000" y="20.184044" fill="rgb(0, 100, 0)" style="fill-opacity:1.00" />
<!-- End 'T' -->
<!-- Begin 'C' -->
<ellipse cx="475.000000" cy="108.400223" rx="25.000000" ry="0.641959" fill="rgb(0, 0, 128)" style="fill-opacity:1.00" />
<ellipse cx="475.000000" cy="108.400223" rx="16.666667" ry="0.427973" fill="rgb(255, 255, 255)" style="fill-opacity:1.00" />
<rect height="0.641959" width="25.000000" x="475.000000" y="108.079244" fill="rgb(255, 255, 255)" style="fill-opacity:1.00" />
<!-- End 'C' -->
<!-- Begin 'G' -->
<ellipse cx="475.000000" cy="109.288064" rx="25.000000" ry="0.245882" fill="rgb(255, 165, 0)" style="fill-opacity:1.00" />
<ellipse cx="475.000000" cy="109.288064" rx="16.666667" ry="0.163921" fill="rgb(255, 255, 255)" style="fill-opacity:1.00" />
<rect height="0.245882" width="25.000000" x="475.000000" y="109.165123" fill="rgb(255, 255, 255)" style="fill-opacity:1.00" />
<rect height="0.061471" width="25.000000" x="475.000000" y="109.349535" fill="rgb(255, 165, 0)" style="fill-opacity:1.00" />
<rect height="0.184412" width="6.250000" x="493.750000" y="109.349535" fill="rgb(255, 165, 0)" style="fill-opacity:1.00" />
<!-- End 'G' -->
<!-- Begin 'A' -->
<polygon points=" 450.000000, 110.000000, 471.000000, 109.533946, 479.000000, 109.533946, 500.000000, 110.000000, 492.500000, 110.000000, 486.250000, 109.883487, 463.750000, 109.883487, 457.500000, 110.000000" fill="rgb(178, 34, 34)" style="fill-opacity:1.00" />
<!-- End 'A' -->
<!-- Begin 'G' -->
<ellipse cx="535.000000" cy="60.607865" rx="25.000000" ry="49.129469" fill="rgb(255, 165, 0)" style="fill-opacity:1.00" />
<ellipse cx="535.000000" cy="60.607865" rx="16.666667" ry="32.752980" fill="rgb(255, 255, 255)" style="fill-opacity:1.00" />
<rect height="49.129469" width="25.000000" x="535.000000" y="36.043130" fill="rgb(255, 255, 255)" style="fill-opacity:1.00" />
<rect height="12.282367" width="25.000000" x="535.000000" y="72.890232" fill="rgb(255, 165, 0)" style="fill-opacity:1.00" />
<rect height="36.847102" width="6.250000" x="553.750000" y="72.890232" fill="rgb(255, 165, 0)" style="fill-opacity:1.00" />
<!-- End 'G' -->
<!-- Begin 'C' -->
<ellipse cx="535.000000" cy="109.822877" rx="25.000000" ry="0.085543" fill="rgb(0, 0, 128)" style="fill-opacity:1.00" />
<ellipse cx="535.000000" cy="109.822877" rx="16.666667" ry="0.057029" fill="rgb(255, 255, 255)" style="fill-opacity:1.00" />
<rect height="0.085543" width="25.000000" x="535.000000" y="109.780106" fill="rgb(255, 255, 255)" style="fill-opacity:1.00" />
<!-- End 'C' -->
<!-- Begin 'T' -->
<rect height="0.013158" width="50.000000" x="510.000000" y="109.908420" fill="rgb(0, 100, 0)" style="fill-opacity:1.00" />
<rect height="0.082237" width="10.000000" x="530.000000" y="109.908420" fill="rgb(0, 100, 0)" style="fill-opacity:1.00" />
<!-- End 'T' -->
<!-- Begin 'A' -->
<polygon points=" 510.000000, 110.000000, 531.000000, 109.990657, 539.000000, 109.990657, 560.000000, 110.000000, 552.500000, 110.000000, 546.250000, 109.997664, 523.750000, 109.997664, 517.500000, 110.000000" fill="rgb(178, 34, 34)" style="fill-opacity:1.00" />
<!-- End 'A' -->
<!-- Begin 'A' -->
<polygon points=" 570.000000, 103.384950, 591.000000, 97.736401, 599.000000, 97.736401, 620.000000, 103.384950, 612.500000, 103.384950, 606.250000, 101.972813, 583.750000, 101.972813, 577.500000, 103.384950" fill="rgb(178, 34, 34)" style="fill-opacity:1.00" />
<!-- End 'A' -->
<!-- Begin 'G' -->
<ellipse cx="595.000000" cy="105.248591" rx="25.000000" ry="1.863641" fill="rgb(255, 165, 0)" style="fill-opacity:1.00" />
<ellipse cx="595.000000" cy="105.248591" rx="16.666667" ry="1.242427" fill="rgb(255, 255, 255)" style="fill-opacity:1.00" />
<rect height="1.863641" width="25.000000" x="595.000000" y="104.316770" fill="rgb(255, 255, 255)" style="fill-opacity:1.00" />
<rect height="0.465910" width="25.000000" x="595.000000" y="105.714501" fill="rgb(255, 165, 0)" style="fill-opacity:1.00" />
<rect height="1.397731" width="6.250000" x="613.750000" y="105.714501" fill="rgb(255, 165, 0)" style="fill-opacity:1.00" />
<!-- End 'G' -->
<!-- Begin 'C' -->
<ellipse cx="595.000000" cy="108.003069" rx="25.000000" ry="0.890838" fill="rgb(0, 0, 128)" style="fill-opacity:1.00" />
<ellipse cx="595.000000" cy="108.003069" rx="16.666667" ry="0.593892" fill="rgb(255, 255, 255)" style="fill-opacity:1.00" />
<rect height="0.890838" width="25.000000" x="595.000000" y="107.557651" fill="rgb(255, 255, 255)" style="fill-opacity:1.00" />
<!-- End 'C' -->
<!-- Begin 'T' -->
<rect height="0.176975" width="50.000000" x="570.000000" y="108.893907" fill="rgb(0, 100, 0)" style="fill-opacity:1.00" />
<rect height="1.106093" width="10.000000" x="590.000000" y="108.893907" fill="rgb(0, 100, 0)" style="fill-opacity:1.00" />
<!-- End 'T' -->
<!-- Begin 'C' -->
<ellipse cx="655.000000" cy="96.259169" rx="25.000000" ry="5.302920" fill="rgb(0, 0, 128)" style="fill-opacity:1.00" />
<ellipse cx="655.000000" cy="96.259169" rx="16.666667" ry="3.535280" fill="rgb(255, 255, 255)" style="fill-opacity:1.00" />
<rect height="5.302920" width="25.000000" x="655.000000" y="93.607709" fill="rgb(255, 255, 255)" style="fill-opacity:1.00" />
<!-- End 'C' -->
<!-- Begin 'T' -->
<rect height="0.635473" width="50.000000" x="630.000000" y="101.562089" fill="rgb(0, 100, 0)" style="fill-opacity:1.00" />
<rect height="3.971709" width="10.000000" x="650.000000" y="101.562089" fill="rgb(0, 100, 0)" style="fill-opacity:1.00" />
<!-- End 'T' -->
<!-- Begin 'G' -->
<ellipse cx="655.000000" cy="107.230633" rx="25.000000" ry="1.696836" fill="rgb(255, 165, 0)" style="fill-opacity:1.00" />
<ellipse cx="655.000000" cy="107.230633" rx="16.666667" ry="1.131224" fill="rgb(255, 255, 255)" style="fill-opacity:1.00" />
<rect height="1.696836" width="25.000000" x="655.000000" y="106.382216" fill="rgb(255, 255, 255)" style="fill-opacity:1.00" />
<rect height="0.424209" width="25.000000" x="655.000000" y="107.654842" fill="rgb(255, 165, 0)" style="fill-opacity:1.00" />
<rect height="1.272627" width="6.250000" x="673.750000" y="107.654842" fill="rgb(255, 165, 0)" style="fill-opacity:1.00" />
<!-- End 'G' -->
<!-- Begin 'A' -->
<polygon points=" 630.000000, 110.000000, 651.000000, 108.927469, 659.000000, 108.927469, 680.000000, 110.000000, 672.500000, 110.000000, 666.250000, 109.731867, 643.750000, 109.731867, 637.500000, 110.000000" fill="rgb(178, 34, 34)" style="fill-opacity:1.00" />
<!-- End 'A' -->
<!-- Begin 'C' -->
<ellipse cx="715.000000" cy="104.380626" rx="25.000000" ry="1.606551" fill="rgb(0, 0, 128)" style="fill-opacity:1.00" />
<ellipse cx="715.000000" cy="104.380626" rx="16.666667" ry="1.071034" fill="rgb(255, 255, 255)" style="fill-opacity:1.00" />
<rect height="1.606551" width="25.000000" x="715.000000" y="103.577351" fill="rgb(255, 255, 255)" style="fill-opacity:1.00" />
<!-- End 'C' -->
<!-- Begin 'T' -->
<rect height="0.258178" width="50.000000" x="690.000000" y="105.987177" fill="rgb(0, 100, 0)" style="fill-opacity:1.00" />
<rect height="1.613615" width="10.000000" x="710.000000" y="105.987177" fill="rgb(0, 100, 0)" style="fill-opacity:1.00" />
<!-- End 'T' -->
<!-- Begin 'G' -->
<ellipse cx="715.000000" cy="108.306994" rx="25.000000" ry="0.706202" fill="rgb(255, 165, 0)" style="fill-opacity:1.00" />
<ellipse cx="715.000000" cy="108.306994" rx="16.666667" ry="0.470801" fill="rgb(255, 255, 255)" style="fill-opacity:1.00" />
<rect height="0.706202" width="25.000000" x="715.000000" y="107.953893" fill="rgb(255, 255, 255)" style="fill-opacity:1.00" />
<rect height="0.176550" width="25.000000" x="715.000000" y="108.483545" fill="rgb(255, 165, 0)" style="fill-opacity:1.00" />
<rect height="0.529651" width="6.250000" x="733.750000" y="108.483545" fill="rgb(255, 165, 0)" style="fill-opacity:1.00" />
<!-- End 'G' -->
<!-- Begin 'A' -->
<polygon points=" 690.000000, 110.000000, 711.000000, 109.013196, 719.000000, 109.013196, 740.000000, 110.000000, 732.500000, 110.000000, 726.250000, 109.753299, 703.750000, 109.753299, 697.500000, 110.000000" fill="rgb(178, 34, 34)" style="fill-opacity:1.00" />
<!-- End 'A' -->
<text x="400.000000" y="165">
IC = 10.96
</text>

</svg>
